<mxfile host="app.diagrams.net" modified="2020-09-07T09:48:00.945Z" agent="5.0 (Windows NT 10.0; Win64; x64) AppleWebKit/537.36 (KHTML, like Gecko) Chrome/81.0.4044.138 Safari/537.36 OPR/68.0.3618.206" etag="AvWvZG2FMAKzuiBWn6Ja" version="13.6.6" type="github">
  <diagram id="C5RBs43oDa-KdzZeNtuy" name="Page-1">
    <mxGraphModel dx="1381" dy="802" grid="1" gridSize="10" guides="1" tooltips="1" connect="1" arrows="1" fold="1" page="1" pageScale="1" pageWidth="827" pageHeight="1169" math="0" shadow="0">
      <root>
        <mxCell id="WIyWlLk6GJQsqaUBKTNV-0" />
        <mxCell id="WIyWlLk6GJQsqaUBKTNV-1" parent="WIyWlLk6GJQsqaUBKTNV-0" />
        <mxCell id="WIyWlLk6GJQsqaUBKTNV-2" value="" style="rounded=0;html=1;jettySize=auto;orthogonalLoop=1;fontSize=11;endArrow=block;endFill=0;endSize=8;strokeWidth=1;shadow=0;labelBackgroundColor=none;edgeStyle=orthogonalEdgeStyle;" parent="WIyWlLk6GJQsqaUBKTNV-1" source="WIyWlLk6GJQsqaUBKTNV-3" edge="1">
          <mxGeometry relative="1" as="geometry">
            <mxPoint x="220" y="170" as="targetPoint" />
          </mxGeometry>
        </mxCell>
        <mxCell id="WIyWlLk6GJQsqaUBKTNV-3" value="Open memory card" style="rounded=1;whiteSpace=wrap;html=1;fontSize=12;glass=0;strokeWidth=1;shadow=0;" parent="WIyWlLk6GJQsqaUBKTNV-1" vertex="1">
          <mxGeometry x="160" y="80" width="120" height="40" as="geometry" />
        </mxCell>
        <mxCell id="Xc53Lqq3viiPFTSIOd8u-4" value="" style="edgeStyle=orthogonalEdgeStyle;rounded=0;orthogonalLoop=1;jettySize=auto;html=1;" edge="1" parent="WIyWlLk6GJQsqaUBKTNV-1" source="Xc53Lqq3viiPFTSIOd8u-0" target="Xc53Lqq3viiPFTSIOd8u-3">
          <mxGeometry relative="1" as="geometry" />
        </mxCell>
        <mxCell id="Xc53Lqq3viiPFTSIOd8u-0" value="Repeat until end of card" style="ellipse;whiteSpace=wrap;html=1;" vertex="1" parent="WIyWlLk6GJQsqaUBKTNV-1">
          <mxGeometry x="160" y="170" width="120" height="80" as="geometry" />
        </mxCell>
        <mxCell id="Xc53Lqq3viiPFTSIOd8u-6" value="" style="edgeStyle=orthogonalEdgeStyle;rounded=0;orthogonalLoop=1;jettySize=auto;html=1;" edge="1" parent="WIyWlLk6GJQsqaUBKTNV-1" source="Xc53Lqq3viiPFTSIOd8u-3" target="Xc53Lqq3viiPFTSIOd8u-5">
          <mxGeometry relative="1" as="geometry" />
        </mxCell>
        <mxCell id="Xc53Lqq3viiPFTSIOd8u-3" value="Read 512 bytes into a buffer" style="shape=hexagon;perimeter=hexagonPerimeter2;whiteSpace=wrap;html=1;fixedSize=1;" vertex="1" parent="WIyWlLk6GJQsqaUBKTNV-1">
          <mxGeometry x="320" y="250" width="120" height="80" as="geometry" />
        </mxCell>
        <mxCell id="Xc53Lqq3viiPFTSIOd8u-10" value="" style="edgeStyle=orthogonalEdgeStyle;rounded=0;orthogonalLoop=1;jettySize=auto;html=1;" edge="1" parent="WIyWlLk6GJQsqaUBKTNV-1" source="Xc53Lqq3viiPFTSIOd8u-5" target="Xc53Lqq3viiPFTSIOd8u-9">
          <mxGeometry relative="1" as="geometry" />
        </mxCell>
        <mxCell id="Xc53Lqq3viiPFTSIOd8u-11" value="Yes" style="edgeLabel;html=1;align=center;verticalAlign=middle;resizable=0;points=[];" vertex="1" connectable="0" parent="Xc53Lqq3viiPFTSIOd8u-10">
          <mxGeometry x="-0.4182" y="-10" relative="1" as="geometry">
            <mxPoint as="offset" />
          </mxGeometry>
        </mxCell>
        <mxCell id="Xc53Lqq3viiPFTSIOd8u-23" value="No" style="edgeStyle=orthogonalEdgeStyle;rounded=0;orthogonalLoop=1;jettySize=auto;html=1;" edge="1" parent="WIyWlLk6GJQsqaUBKTNV-1" source="Xc53Lqq3viiPFTSIOd8u-5" target="Xc53Lqq3viiPFTSIOd8u-22">
          <mxGeometry relative="1" as="geometry" />
        </mxCell>
        <mxCell id="Xc53Lqq3viiPFTSIOd8u-5" value="Start of new JPEG?" style="shape=hexagon;perimeter=hexagonPerimeter2;whiteSpace=wrap;html=1;fixedSize=1;" vertex="1" parent="WIyWlLk6GJQsqaUBKTNV-1">
          <mxGeometry x="320" y="370" width="120" height="80" as="geometry" />
        </mxCell>
        <mxCell id="Xc53Lqq3viiPFTSIOd8u-13" value="Yes" style="edgeStyle=orthogonalEdgeStyle;rounded=0;orthogonalLoop=1;jettySize=auto;html=1;" edge="1" parent="WIyWlLk6GJQsqaUBKTNV-1" source="Xc53Lqq3viiPFTSIOd8u-9" target="Xc53Lqq3viiPFTSIOd8u-12">
          <mxGeometry relative="1" as="geometry" />
        </mxCell>
        <mxCell id="Xc53Lqq3viiPFTSIOd8u-15" value="No" style="edgeStyle=orthogonalEdgeStyle;rounded=0;orthogonalLoop=1;jettySize=auto;html=1;" edge="1" parent="WIyWlLk6GJQsqaUBKTNV-1" source="Xc53Lqq3viiPFTSIOd8u-9" target="Xc53Lqq3viiPFTSIOd8u-14">
          <mxGeometry relative="1" as="geometry">
            <Array as="points">
              <mxPoint x="670" y="390" />
            </Array>
          </mxGeometry>
        </mxCell>
        <mxCell id="Xc53Lqq3viiPFTSIOd8u-9" value="First JPEG?" style="ellipse;whiteSpace=wrap;html=1;" vertex="1" parent="WIyWlLk6GJQsqaUBKTNV-1">
          <mxGeometry x="520" y="350" width="120" height="80" as="geometry" />
        </mxCell>
        <mxCell id="Xc53Lqq3viiPFTSIOd8u-17" value="" style="edgeStyle=orthogonalEdgeStyle;rounded=0;orthogonalLoop=1;jettySize=auto;html=1;" edge="1" parent="WIyWlLk6GJQsqaUBKTNV-1" source="Xc53Lqq3viiPFTSIOd8u-12" target="Xc53Lqq3viiPFTSIOd8u-16">
          <mxGeometry relative="1" as="geometry" />
        </mxCell>
        <mxCell id="Xc53Lqq3viiPFTSIOd8u-12" value="Open First JPEG" style="ellipse;whiteSpace=wrap;html=1;" vertex="1" parent="WIyWlLk6GJQsqaUBKTNV-1">
          <mxGeometry x="707" y="320" width="120" height="80" as="geometry" />
        </mxCell>
        <mxCell id="Xc53Lqq3viiPFTSIOd8u-19" value="" style="edgeStyle=orthogonalEdgeStyle;rounded=0;orthogonalLoop=1;jettySize=auto;html=1;" edge="1" parent="WIyWlLk6GJQsqaUBKTNV-1" source="Xc53Lqq3viiPFTSIOd8u-14" target="Xc53Lqq3viiPFTSIOd8u-18">
          <mxGeometry relative="1" as="geometry" />
        </mxCell>
        <mxCell id="Xc53Lqq3viiPFTSIOd8u-14" value="Close current JPEG" style="ellipse;whiteSpace=wrap;html=1;" vertex="1" parent="WIyWlLk6GJQsqaUBKTNV-1">
          <mxGeometry x="610" y="490" width="120" height="80" as="geometry" />
        </mxCell>
        <mxCell id="Xc53Lqq3viiPFTSIOd8u-16" value="Write buffer into JPEG" style="ellipse;whiteSpace=wrap;html=1;" vertex="1" parent="WIyWlLk6GJQsqaUBKTNV-1">
          <mxGeometry x="920" y="320" width="120" height="80" as="geometry" />
        </mxCell>
        <mxCell id="Xc53Lqq3viiPFTSIOd8u-21" value="" style="edgeStyle=orthogonalEdgeStyle;rounded=0;orthogonalLoop=1;jettySize=auto;html=1;" edge="1" parent="WIyWlLk6GJQsqaUBKTNV-1" source="Xc53Lqq3viiPFTSIOd8u-18" target="Xc53Lqq3viiPFTSIOd8u-20">
          <mxGeometry relative="1" as="geometry" />
        </mxCell>
        <mxCell id="Xc53Lqq3viiPFTSIOd8u-18" value="Open new JPEG" style="ellipse;whiteSpace=wrap;html=1;" vertex="1" parent="WIyWlLk6GJQsqaUBKTNV-1">
          <mxGeometry x="800" y="480" width="120" height="80" as="geometry" />
        </mxCell>
        <mxCell id="Xc53Lqq3viiPFTSIOd8u-20" value="Write buffer into JPEG" style="ellipse;whiteSpace=wrap;html=1;" vertex="1" parent="WIyWlLk6GJQsqaUBKTNV-1">
          <mxGeometry x="960" y="480" width="120" height="80" as="geometry" />
        </mxCell>
        <mxCell id="Xc53Lqq3viiPFTSIOd8u-25" value="Yes" style="edgeStyle=orthogonalEdgeStyle;rounded=0;orthogonalLoop=1;jettySize=auto;html=1;" edge="1" parent="WIyWlLk6GJQsqaUBKTNV-1" source="Xc53Lqq3viiPFTSIOd8u-22" target="Xc53Lqq3viiPFTSIOd8u-24">
          <mxGeometry relative="1" as="geometry" />
        </mxCell>
        <mxCell id="Xc53Lqq3viiPFTSIOd8u-27" value="All done?" style="edgeStyle=orthogonalEdgeStyle;rounded=0;orthogonalLoop=1;jettySize=auto;html=1;" edge="1" parent="WIyWlLk6GJQsqaUBKTNV-1" source="Xc53Lqq3viiPFTSIOd8u-22" target="Xc53Lqq3viiPFTSIOd8u-26">
          <mxGeometry relative="1" as="geometry">
            <Array as="points">
              <mxPoint x="380" y="640" />
              <mxPoint x="220" y="640" />
            </Array>
          </mxGeometry>
        </mxCell>
        <mxCell id="Xc53Lqq3viiPFTSIOd8u-22" value="Already found JPEG?" style="shape=hexagon;perimeter=hexagonPerimeter2;whiteSpace=wrap;html=1;fixedSize=1;" vertex="1" parent="WIyWlLk6GJQsqaUBKTNV-1">
          <mxGeometry x="320" y="530" width="120" height="80" as="geometry" />
        </mxCell>
        <mxCell id="Xc53Lqq3viiPFTSIOd8u-24" value="Write buffer into current JPEG" style="ellipse;whiteSpace=wrap;html=1;" vertex="1" parent="WIyWlLk6GJQsqaUBKTNV-1">
          <mxGeometry x="510" y="580" width="120" height="80" as="geometry" />
        </mxCell>
        <mxCell id="Xc53Lqq3viiPFTSIOd8u-26" value="Close any remaining files" style="whiteSpace=wrap;html=1;" vertex="1" parent="WIyWlLk6GJQsqaUBKTNV-1">
          <mxGeometry x="160" y="680" width="120" height="60" as="geometry" />
        </mxCell>
      </root>
    </mxGraphModel>
  </diagram>
</mxfile>
